<?xml version="1.0" encoding="utf-8"?>
<!-- Generator: Adobe Illustrator 22.0.0, SVG Export Plug-In . SVG Version: 6.00 Build 0)  -->
<svg version="1.1" id="图层_1" xmlns="http://www.w3.org/2000/svg" xmlns:xlink="http://www.w3.org/1999/xlink" x="0px" y="0px"
	 viewBox="0 0 349.2 50" style="enable-background:new 0 0 349.2 50;" xml:space="preserve">
<style type="text/css">
	.st0{fill:#006837;}
</style>
<g>
	<path class="st0" d="M29,18.5v0.4l0.8,0.8v16.8c0,0.7-0.3,1.5-0.8,2.2c-0.5,0.8-1.2,1.5-1.9,2.1c-0.7,0.6-1.5,1.2-2.4,1.6
		c-0.9,0.4-1.6,0.6-2.3,0.6H1.3l-0.8-0.8H0.1V36h17.5c1.4-0.2,2.3-0.7,2.7-1.5v-16H29z M21,19.2v15.4c-0.4,1.1-1.5,1.8-3.2,2.1h-17
		v4.7h20.6c0.6,0,1.4-0.2,2.2-0.6c0.8-0.4,1.5-0.9,2.2-1.5c0.7-0.6,1.3-1.2,1.7-2c0.5-0.7,0.7-1.4,0.7-2V19.2H21z"/>
	<path class="st0" d="M58.4,36c0.1,0,0.2-0.2,0.2-0.5c0.1-0.3,0.1-0.6,0.1-0.8c0-0.2,0-0.4-0.1-0.6h-25l-0.8-0.8h-0.4
		c0-1.9,0.3-3.8,0.9-5.5c0.6-1.8,1.5-3.3,2.6-4.7c1.1-1.4,2.5-2.4,4-3.3c1.6-0.8,3.3-1.2,5.2-1.2h21.7v0.4l0.8,0.8v5.8H46.4
		c-0.6,0.6-1,1-1.1,1.2c-0.2,0.2-0.4,0.4-0.6,0.8l-0.1,0.1h0.1c0,0,0,0.1-0.1,0.1h19.8c0.7,0,1.4,0.2,2,0.7c0.6,0.5,1.1,1.1,1.6,1.7
		c0.7,0.8,1.3,1.8,1.7,2.9c0.4,1.1,0.7,2.1,0.7,2.8c0,0.8-0.2,1.7-0.5,2.6c-0.3,0.9-0.8,1.7-1.4,2.4c-0.6,0.7-1.3,1.3-2.1,1.7
		c-0.8,0.5-1.7,0.7-2.6,0.7H27.7l-0.8-0.8h-0.4V36H58.4z M27.2,36.7v4.8h35.6c0.8,0,1.6-0.2,2.4-0.6c0.7-0.4,1.4-1,1.9-1.6
		s1-1.4,1.3-2.2c0.3-0.8,0.5-1.6,0.5-2.4c0-0.5-0.1-1.1-0.3-1.9c-0.2-0.7-0.5-1.4-0.9-2.1c-0.4-0.7-0.9-1.3-1.4-1.7
		c-0.6-0.5-1.2-0.7-1.8-0.7H43.1c-0.2-0.5-0.3-0.8-0.3-0.9c0-0.2,0-0.4,0.1-0.6c0.1-0.2,0.2-0.4,0.4-0.7c0.4-0.5,1-1.2,2-2.2h20.9
		v-4.7H45.2c-1.8,0-3.4,0.4-4.9,1.1c-1.5,0.7-2.8,1.7-3.8,2.9c-1.1,1.2-1.9,2.6-2.4,4.2c-0.6,1.6-0.8,3.3-0.8,5h25.4
		c0.1,0,0.3,0.3,0.5,0.8c0.2,0.5,0.3,1,0.3,1.4c0,0.3-0.1,0.7-0.3,1.2c-0.2,0.5-0.4,0.8-0.7,0.8H27.2z"/>
	<path class="st0" d="M73.2,21.7c0.5-0.6,1.2-1.1,1.9-1.6c0.7-0.5,1.4-0.9,2.1-1.2c0.7-0.3,1.4-0.5,1.9-0.5h28.6v0.4l0.8,0.8v18.5
		c-0.2,0.5-0.5,1-1,1.6c-0.5,0.6-1.1,1.1-1.7,1.6c-0.6,0.5-1.3,0.9-1.9,1.2c-0.6,0.3-1.2,0.5-1.6,0.5H73.4l-0.8-0.8h-0.4V23.5
		C72.4,22.9,72.7,22.3,73.2,21.7z M73,24.9v16.6h28.2h0.2c0.4,0,0.9-0.1,1.5-0.4c0.6-0.3,1.2-0.6,1.7-1.1c0.6-0.4,1.1-0.9,1.5-1.4
		c0.5-0.5,0.8-0.9,0.9-1.4v-18H79.1c-0.5,0-1.1,0.1-1.7,0.4c-0.7,0.3-1.3,0.6-1.9,1c-0.6,0.4-1.2,0.9-1.6,1.4
		c-0.5,0.5-0.8,1-0.9,1.6V24.9z M100.3,24.4v8.9c-0.2,0.9-0.5,1.6-0.9,2c-0.5,0.4-1.3,0.7-2.5,1H80.2v-9.1c0.2-0.7,0.5-1.2,1-1.7
		c0.5-0.5,1.1-0.8,2-1.1H100.3z M98.8,34.8c0.4-0.3,0.7-0.8,0.8-1.5V26H84.4c-0.8,0.2-1.4,0.6-1.8,1c-0.4,0.4-0.7,0.9-0.9,1.5v7.1
		h14.9C97.6,35.4,98.4,35.1,98.8,34.8z"/>
	<path class="st0" d="M111.5,42.2h-0.4V18.5h28.6c0.5,0,1,0.1,1.6,0.3c0.6,0.2,1.2,0.5,1.9,0.9c0.6,0.4,1.2,0.9,1.7,1.4
		c0.5,0.5,1,1.1,1.4,1.7c0.3,0.3,0.5,0.7,0.8,1c0.2,0.3,0.4,0.7,0.6,1V43h-7.9l-0.8-0.8h-0.4V27.6c-0.1-0.4-0.3-0.7-0.5-1.1
		c-0.2-0.1-0.4-0.2-0.6-0.2c-0.2-0.1-0.5-0.2-0.8-0.2h-16v17h-8.3L111.5,42.2z M146.2,23.8c-0.2-0.6-0.6-1.2-1.1-1.7
		c-0.5-0.6-1-1.1-1.6-1.5s-1.2-0.8-1.9-1c-0.6-0.3-1.2-0.4-1.7-0.4h-27.9v22.3h7.2v-17h16.7c1.2,0.3,2,0.6,2.5,1
		c0.5,0.4,0.8,1,1,1.8v14.2h6.8V23.8z"/>
	<path class="st0" d="M151.2,21.7c0.5-0.6,1.2-1.1,1.9-1.6c0.7-0.5,1.4-0.9,2.1-1.2c0.7-0.3,1.4-0.5,1.9-0.5h28.6v0.4l0.8,0.8v18.5
		c-0.2,0.5-0.5,1-1,1.6c-0.5,0.6-1.1,1.1-1.7,1.6c-0.6,0.5-1.3,0.9-1.9,1.2c-0.6,0.3-1.2,0.5-1.6,0.5h-28.9l-0.8-0.8h-0.4V23.5
		C150.4,22.9,150.7,22.3,151.2,21.7z M151,24.9v16.6h28.2h0.2c0.4,0,0.9-0.1,1.5-0.4c0.6-0.3,1.2-0.6,1.7-1.1
		c0.6-0.4,1.1-0.9,1.5-1.4c0.5-0.5,0.8-0.9,0.9-1.4v-18h-27.9c-0.5,0-1.1,0.1-1.7,0.4c-0.7,0.3-1.3,0.6-1.9,1
		c-0.6,0.4-1.2,0.9-1.6,1.4c-0.5,0.5-0.8,1-0.9,1.6V24.9z M178.3,24.4l-0.1,6.9H171v5h-12.8v-9.1c0.2-0.7,0.5-1.2,1-1.7
		c0.5-0.5,1.1-0.8,2-1.1H178.3z M170.3,30.6h7.2l0.1-4.6h-15.2c-0.8,0.2-1.4,0.6-1.8,1c-0.4,0.4-0.7,0.9-0.9,1.5v7.1h10.6V30.6z"/>
	<path class="st0" d="M189.4,18.5h8.3v0.4l0.8,0.8v14.6c0,0.2,0,0.4,0.1,0.7c0.4,0.2,1,0.5,2,0.7h15.7V18.5h8.8v0.4l0.8,0.8V43h-29
		c-0.6,0-1.3-0.2-2.2-0.7c-0.8-0.5-1.6-1-2.3-1.6c-0.7-0.5-1.3-1-1.9-1.6c-0.6-0.6-1-1.2-1.2-1.7V18.5z M190.1,37.2
		c0.2,0.4,0.5,0.9,1.1,1.4c0.5,0.5,1,1,1.6,1.4s1.2,0.8,1.8,1.1c0.6,0.3,1.1,0.4,1.5,0.4h28.3V19.2h-7.3v17.1h-16.7
		c-1.2-0.3-2-0.6-2.5-1c-0.5-0.4-0.8-1.1-0.9-2V19.2h-6.9V37.2z"/>
	<path class="st0" d="M229.6,37.4c0.8-1.8,1.8-3.5,3.1-5h-3.2l-0.8-0.8h-0.4c0.2-1,0.5-2.1,1-3.3c0.5-1.2,1.4-2.5,2.7-4.1v0.1
		c0.5-0.6,1.2-1.3,2-2c0.8-0.7,1.7-1.3,2.6-1.8c1-0.5,2-1,3.1-1.4c1.1-0.4,2.2-0.6,3.4-0.6h21.8v0.4l0.8,0.8v5.8h-20.3
		c-0.3,0.1-0.7,0.3-1,0.4c-0.3,0.2-0.7,0.5-1.2,0.9h-0.1c-0.1,0.1-0.2,0.2-0.4,0.4c-0.1,0.1-0.2,0.2-0.3,0.4h19.8v0.4l0.8,0.8V34
		h-18.3c-0.4,0-0.7,0.2-1.1,0.6c-0.4,0.4-0.7,0.9-1,1.4h22.9v0.4l0.8,0.8V43h-36.9l-0.8-0.8h-0.4C228.4,40.8,228.8,39.2,229.6,37.4z
		 M234.1,30.9h1.1c-0.8,0.8-1.6,1.6-2.4,2.5c-0.7,0.9-1.4,1.9-1.9,2.8c-0.6,1-1,1.9-1.3,2.8c-0.3,0.9-0.5,1.7-0.5,2.5h35.8v-4.7
		h-24.4c0.4-1.2,0.8-2.2,1.5-3c0.6-0.8,1.2-1.2,1.9-1.2h17.8v-4.3h-21.4c0.1-0.6,0.3-1.1,0.5-1.5c0.2-0.4,0.6-0.9,1.1-1.4
		c0.5-0.5,0.9-0.8,1.3-1c0.3-0.2,0.7-0.3,1-0.5h19.9v-4.7H243c-1.1,0-2.2,0.3-3.3,0.6c-1.1,0.4-2.1,0.8-3.1,1.4s-1.8,1.2-2.6,1.8
		c-0.8,0.7-1.4,1.3-1.9,2c-1.2,1.4-1.9,2.5-2.3,3.4c-0.4,0.9-0.7,1.7-0.8,2.5H234.1z"/>
	<path class="st0" d="M268.7,18.5H291c1.2,0,2.4,0.3,3.5,0.7c1.1,0.4,2.2,0.9,3.1,1.5c1,0.6,1.9,1.2,2.7,1.9c0.8,0.7,1.5,1.4,2,2
		c0.1,0.2,0.2,0.3,0.3,0.4c0.1,0.1,0.2,0.3,0.3,0.4c0.1,0.1,0.1,0.1,0.1,0.2c0,0,0.1,0.1,0.2,0.1c1.2,1.4,2,2.6,2.4,3.7
		c0.4,1,0.7,2.1,0.9,3.1h-5.3c0.1,0.1,0.2,0.2,0.2,0.3c0.1,0.1,0.1,0.2,0.2,0.3c0.6,0.8,1.3,1.6,1.8,2.4c0.6,0.9,1.1,1.7,1.5,2.6
		s0.8,1.8,1,2.6c0.3,0.8,0.4,1.6,0.4,2.3h-9.4l-0.8-0.8h-0.3c-1.3-3.4-2.2-5.5-2.8-6.2c-0.2-0.2-0.3-0.3-0.5-0.5
		c-0.1-0.2-0.3-0.3-0.4-0.5l-0.2-0.2c-0.1-0.2-0.2-0.3-0.3-0.4c-0.1-0.1-0.2-0.2-0.3-0.4c0,0-0.1-0.1-0.2-0.1h-10.5l-0.8-0.8h-0.4
		v-5.7h13.3c-0.3-0.6-0.7-1.2-1.1-1.6c-0.2-0.1-0.3-0.1-0.4-0.2c-0.1-0.1-0.2-0.1-0.4-0.2H278V43h-8.1l-0.8-0.8h-0.4V18.5z
		 M269.5,41.5h7V23.9h13.3c0.3,0.1,0.7,0.3,1,0.5c0.4,0.2,0.8,0.5,1.3,1c0.5,0.5,0.9,1,1.2,1.6c0.3,0.5,0.5,1,0.6,1.3h-13.7v4.3h10
		c0.4,0,0.7,0.1,1,0.4c0.3,0.2,0.6,0.5,0.9,0.9c0.3,0.3,0.6,0.7,0.9,1.1c0.3,0.4,0.6,0.7,0.9,1c0.5,0.6,1.3,2.5,2.5,5.6h8.5
		c0-0.7-0.2-1.5-0.5-2.5c-0.3-0.9-0.8-1.9-1.4-2.8c-0.6-1-1.2-1.9-1.9-2.8c-0.7-0.9-1.5-1.7-2.3-2.5h6.1c-0.1-0.8-0.4-1.6-0.8-2.5
		c-0.4-0.9-1.2-2-2.3-3.4c-0.6-0.6-1.2-1.3-2-2c-0.8-0.7-1.6-1.3-2.5-1.8c-0.9-0.5-1.9-1-3-1.4c-1.1-0.4-2.2-0.6-3.3-0.6h-21.5V41.5
		z M292.5,26.5C292.5,26.5,292.5,26.5,292.5,26.5L292.5,26.5z"/>
	<path class="st0" d="M312.9,27.7c-0.8-1-1.4-2.1-2-3.1c-0.6-1.1-1.1-2.1-1.4-3.2c-0.4-1.1-0.5-2-0.5-2.9h9.7
		c0.1,0.2,0.1,0.4,0.2,0.5l0.7,0.7c1,2.7,1.7,4.5,2.2,5.3l0.5,0.5c0,0.1,0.1,0.1,0.1,0.1c0,0,0.1,0.1,0.1,0.1l-0.1-0.1
		c0.1,0.1,0.2,0.2,0.2,0.3c0.1,0.1,0.2,0.2,0.2,0.3l0.2,0.2v0.1c0.4,0.5,0.9,0.8,1.3,0.8h10.7v0.4l0.8,0.8V34h-14.5
		c-2-0.6-3.6-1.4-4.7-2.5c-0.5-0.3-1-0.7-1.4-1.2C314.5,29.6,313.7,28.7,312.9,27.7z M320.6,32.5h13.7v-4.3h-10
		c-0.4,0-0.7-0.1-1-0.4c-0.3-0.2-0.7-0.5-1-0.9s-0.6-0.7-0.9-1.1c-0.3-0.4-0.6-0.7-0.9-1c-0.2-0.3-0.6-0.9-1-1.8
		c-0.4-0.9-0.9-2.2-1.5-3.8h-8.5c0,0.7,0.2,1.5,0.5,2.5c0.3,0.9,0.8,1.9,1.4,2.8c0.6,1,1.2,1.9,1.9,2.8c0.7,0.9,1.5,1.8,2.3,2.5
		C316.9,31,318.5,31.9,320.6,32.5z M311.3,42.2h-0.4V36h26.3V18.5h8.5v0.4l0.8,0.8V43h-34.5L311.3,42.2z M345.1,41.5V19.2H338v17.5
		h-26.3v4.7H345.1z M316.3,31l-0.5-0.5C315.9,30.8,316.1,30.9,316.3,31z"/>
</g>
<g>
</g>
<g>
</g>
<g>
</g>
<g>
</g>
<g>
</g>
<g>
</g>
<g>
</g>
<g>
</g>
<g>
</g>
<g>
</g>
<g>
</g>
</svg>
